<svg xmlns="http://www.w3.org/2000/svg" x="0px" y="0px" width="100" height="100" viewBox="0 0 64 64">
    <linearGradient id="JO2QrRBSBZoFQQ5-PJDaKa_UGrLCnKJf6Px_gr1" x1="99.457" x2="150.12" y1="600.25" y2="600.25" gradientTransform="rotate(90 363.44 268.815)" gradientUnits="userSpaceOnUse">
        <stop offset="0" stop-color="#6dc7ff"></stop>
        <stop offset="1" stop-color="#eaabff"></stop>
    </linearGradient>
    <path fill="url(#JO2QrRBSBZoFQQ5-PJDaKa_UGrLCnKJf6Px_gr1)" d="M14.938,53.378c-4.089-1.756-5.932-4.123-5.932-7.377	V26.17l-2.332-3.885l2.241-2.688l4.599,1.84l7.492-5.993V9.265l2.717-0.777l3.676,5.513h9.212l3.676-5.513l2.719,0.777v6.179	l7.491,5.993l4.599-1.84l2.241,2.688l-2.331,3.885v19.831c0,3.285-1.879,5.637-5.933,7.377c-4.199,1.803-10.221,2.623-17.067,2.623	C25.159,56.001,19.137,55.181,14.938,53.378z M25.002,32.999c0-3.311-2.688-6.001-6-6.001c-3.311,0-5.999,2.691-5.999,6.001	c0,3.312,2.688,6.001,5.999,6.001C22.314,39.001,25.002,36.311,25.002,32.999z M50.998,32.999c0-3.311-2.688-6.001-5.999-6.001	c-3.312,0-6,2.691-6,6.001c0,3.312,2.688,6.001,6,6.001C48.31,39.001,50.998,36.311,50.998,32.999z"></path><linearGradient id="JO2QrRBSBZoFQQ5-PJDaKb_UGrLCnKJf6Px_gr2" x1="99.634" x2="153.788" y1="600.251" y2="600.251" gradientTransform="rotate(90 363.175 269.08)" gradientUnits="userSpaceOnUse">
    <stop offset="0" stop-color="#1a6dff"></stop>
    <stop offset="1" stop-color="#c822ff"></stop></linearGradient>
    <path fill="url(#JO2QrRBSBZoFQQ5-PJDaKb_UGrLCnKJf6Px_gr2)" d="M5.003,46.001V27.278l-3.224-5.371l5.92-7.104	l5.133,2.053l4.171-3.336V6.247l8.427-2.408l4.108,6.161h4.929l4.108-6.161l8.428,2.408v7.273l4.169,3.336l5.133-2.053l5.92,7.104	l-3.223,5.371v18.723c0,10.764-13.128,14-27,14C18.23,60.001,5.003,56.807,5.003,46.001z M57.003,46.001v-1h-6.003v5h-14v-5h-9.997	v5h-14v-5h-6v1c0,8.617,10.873,12,25,12C46.227,58.001,57.003,54.574,57.003,46.001z M25.003,48.001v-5h13.997v5h10v-5h8.003V26.725	l2.776-4.629l-4.08-4.896l-4.867,1.947l-5.829-4.664V7.755L39.43,6.163l-3.892,5.837h-7.071l-3.892-5.837l-5.572,1.592v6.727	l-5.831,4.664l-4.867-1.947l-4.08,4.896l2.777,4.629v16.276h8v5H25.003z M31.002,39.001v-8.015h2.001v8.015H31.002z M16.003,33.501	c0-1.932,1.568-3.501,3.5-3.501s3.5,1.569,3.5,3.501c0,1.932-1.568,3.501-3.5,3.501S16.003,35.433,16.003,33.501z M40.998,33.501	c0-1.932,1.568-3.501,3.5-3.501c1.932,0,3.5,1.569,3.5,3.501c0,1.932-1.568,3.501-3.5,3.501	C42.566,37.002,40.998,35.433,40.998,33.501z"></path>
</svg>